<svg class="animated" id="freepik_stories-cute-alien" xmlns="http://www.w3.org/2000/svg" viewBox="0 0 500 500" version="1.1" xmlns:xlink="http://www.w3.org/1999/xlink" xmlns:svgjs="http://svgjs.com/svgjs"><style>svg#freepik_stories-cute-alien:not(.animated) .animable {opacity: 0;}svg#freepik_stories-cute-alien.animated #freepik--background-complete--inject-2 {animation: 6s Infinite  linear shake;animation-delay: 0s;}svg#freepik_stories-cute-alien.animated #freepik--Shadow--inject-2 {animation: 3s Infinite  linear shake;animation-delay: 0s;}svg#freepik_stories-cute-alien.animated #freepik--Planets--inject-2 {animation: 3s Infinite  linear floating;animation-delay: 0s;}svg#freepik_stories-cute-alien.animated #freepik--speech-bubble--inject-2 {animation: 1.5s Infinite  linear heartbeat;animation-delay: 0s;}svg#freepik_stories-cute-alien.animated #freepik--Alien--inject-2 {animation: 3s Infinite  linear shake;animation-delay: 0s;}            @keyframes shake {                10%, 90% {                    transform: translate3d(-1px, 0, 0);                  }                  20%, 80% {                    transform: translate3d(2px, 0, 0);                  }                  30%, 50%, 70% {                    transform: translate3d(-4px, 0, 0);                  }                  40%, 60% {                    transform: translate3d(4px, 0, 0);                  }            }                    @keyframes floating {                0% {                    opacity: 1;                    transform: translateY(0px);                }                50% {                    transform: translateY(-10px);                }                100% {                    opacity: 1;                    transform: translateY(0px);                }            }                    @keyframes heartbeat {                0% {                    transform: scale(1);                }                10% {                    transform: scale(1.1);                }                30% {                    transform: scale(1);                }                40% {                    transform: scale(1);                }                50% {                    transform: scale(1.1);                }                60% {                    transform: scale(1);                }                100% {                    transform: scale(1);                }            }        </style><g id="freepik--background-complete--inject-2" class="animable" style="transform-origin: 250px 231.91px;"><path d="M443.92,330.2H263.17a5.87,5.87,0,0,1-5.86-5.86V61.06a5.87,5.87,0,0,1,5.86-5.86H443.92a5.87,5.87,0,0,1,5.86,5.86V324.34A5.87,5.87,0,0,1,443.92,330.2ZM263.17,55.45a5.62,5.62,0,0,0-5.61,5.61V324.34a5.62,5.62,0,0,0,5.61,5.61H443.92a5.61,5.61,0,0,0,5.61-5.61V61.06a5.61,5.61,0,0,0-5.61-5.61Z" style="fill: rgb(224, 224, 224); transform-origin: 353.545px 192.7px;" id="el9l46fugw0j" class="animable"></path><path d="M235.49,330.2H54.75a5.87,5.87,0,0,1-5.87-5.86V61.06a5.87,5.87,0,0,1,5.87-5.86H235.49a5.86,5.86,0,0,1,5.86,5.86V324.34A5.86,5.86,0,0,1,235.49,330.2ZM54.75,55.45a5.62,5.62,0,0,0-5.62,5.61V324.34A5.62,5.62,0,0,0,54.75,330H235.49a5.61,5.61,0,0,0,5.61-5.61V61.06a5.61,5.61,0,0,0-5.61-5.61Z" style="fill: rgb(224, 224, 224); transform-origin: 145.115px 192.7px;" id="el9l9yfojl1ud" class="animable"></path><rect y="391.27" width="500" height="0.25" style="fill: rgb(224, 224, 224); transform-origin: 250px 391.395px;" id="el7nheivqjpf2" class="animable"></rect><rect x="51.67" y="405.53" width="16.06" height="0.25" style="fill: rgb(224, 224, 224); transform-origin: 59.7px 405.655px;" id="ely0g340gtegi" class="animable"></rect><rect x="170.35" y="402.82" width="53.53" height="0.25" style="fill: rgb(224, 224, 224); transform-origin: 197.115px 402.945px;" id="elkzmueax1ev" class="animable"></rect><rect x="68.73" y="414.82" width="36.25" height="0.25" style="fill: rgb(224, 224, 224); transform-origin: 86.855px 414.945px;" id="elpbc3w0d4jqj" class="animable"></rect><rect x="378.35" y="402.69" width="43.19" height="0.25" style="fill: rgb(224, 224, 224); transform-origin: 399.945px 402.815px;" id="elarwupif68v9" class="animable"></rect><rect x="430.45" y="402.69" width="6.33" height="0.25" style="fill: rgb(224, 224, 224); transform-origin: 433.615px 402.815px;" id="elp9sbpx2lpta" class="animable"></rect><rect x="316.21" y="408.92" width="53.89" height="0.25" style="fill: rgb(224, 224, 224); transform-origin: 343.155px 409.045px;" id="elw5ugh7ib92k" class="animable"></rect><polygon points="159.82 363.57 166.38 362.49 159.82 361.41 163.69 356 158.29 359.88 157.21 353.32 156.13 359.88 150.72 356 154.6 361.41 148.04 362.49 154.6 363.57 150.72 368.97 156.13 365.1 157.21 371.65 158.29 365.1 163.69 368.97 159.82 363.57" style="fill: rgb(230, 230, 230); transform-origin: 157.21px 362.485px;" id="elc3dvte0skzi" class="animable"></polygon><polygon points="88.32 398.47 92.53 397.78 88.32 397.08 90.81 393.61 87.33 396.1 86.64 391.89 85.95 396.1 82.47 393.61 84.96 397.08 80.75 397.78 84.96 398.47 82.47 401.94 85.95 399.46 86.64 403.67 87.33 399.46 90.81 401.94 88.32 398.47" style="fill: rgb(230, 230, 230); transform-origin: 86.64px 397.78px;" id="elily0pxrta6" class="animable"></polygon><polygon points="464.1 366.76 468.31 366.07 464.1 365.38 466.58 361.9 463.11 364.39 462.42 360.18 461.73 364.39 458.25 361.9 460.74 365.38 456.53 366.07 460.74 366.76 458.25 370.23 461.73 367.75 462.42 371.96 463.11 367.75 466.58 370.23 464.1 366.76" style="fill: rgb(230, 230, 230); transform-origin: 462.42px 366.07px;" id="elk6zqc79cybn" class="animable"></polygon><polygon points="135.62 409.89 138.9 409.35 135.62 408.81 137.56 406.11 134.86 408.04 134.32 404.77 133.78 408.04 131.08 406.11 133.01 408.81 129.74 409.35 133.01 409.89 131.08 412.59 133.78 410.66 134.32 413.93 134.86 410.66 137.56 412.59 135.62 409.89" style="fill: rgb(230, 230, 230); transform-origin: 134.32px 409.35px;" id="elef8f2bc5a7j" class="animable"></polygon><polygon points="43.01 239.74 46.28 239.2 43.01 238.66 44.94 235.96 42.24 237.9 41.7 234.62 41.16 237.9 38.46 235.96 40.4 238.66 37.12 239.2 40.4 239.74 38.46 242.44 41.16 240.51 41.7 243.78 42.24 240.51 44.94 242.44 43.01 239.74" style="fill: rgb(230, 230, 230); transform-origin: 41.7px 239.2px;" id="el5qmfz8iqswp" class="animable"></polygon><polygon points="392.06 307.06 395.33 306.52 392.06 305.98 393.99 303.28 391.29 305.22 390.75 301.94 390.21 305.22 387.51 303.28 389.44 305.98 386.17 306.52 389.44 307.06 387.51 309.76 390.21 307.83 390.75 311.11 391.29 307.83 393.99 309.76 392.06 307.06" style="fill: rgb(230, 230, 230); transform-origin: 390.75px 306.525px;" id="elfs1wdyeh1w" class="animable"></polygon><polygon points="437.21 142.5 440.48 141.96 437.21 141.42 439.14 138.72 436.44 140.65 435.9 137.38 435.36 140.65 432.66 138.72 434.6 141.42 431.32 141.96 434.6 142.5 432.66 145.2 435.36 143.27 435.9 146.54 436.44 143.27 439.14 145.2 437.21 142.5" style="fill: rgb(230, 230, 230); transform-origin: 435.9px 141.96px;" id="eluzvd05b8lp" class="animable"></polygon><polygon points="143.51 126.98 146.79 126.44 143.51 125.9 145.44 123.19 142.74 125.13 142.2 121.85 141.66 125.13 138.96 123.19 140.9 125.9 137.62 126.44 140.9 126.98 138.96 129.68 141.66 127.74 142.2 131.02 142.74 127.74 145.44 129.68 143.51 126.98" style="fill: rgb(230, 230, 230); transform-origin: 142.205px 126.435px;" id="elvbao39tn28i" class="animable"></polygon><polygon points="41.7 77.77 44.98 77.23 41.7 76.69 43.64 73.99 40.94 75.93 40.4 72.65 39.85 75.93 37.15 73.99 39.09 76.69 35.81 77.23 39.09 77.77 37.15 80.47 39.85 78.54 40.4 81.81 40.93 78.54 43.64 80.47 41.7 77.77" style="fill: rgb(230, 230, 230); transform-origin: 40.395px 77.23px;" id="elyq5edc6o33" class="animable"></polygon><polygon points="116.24 293.81 121.78 292.9 116.24 291.98 119.51 287.42 114.94 290.69 114.03 285.15 113.12 290.69 108.55 287.42 111.83 291.98 106.29 292.9 111.83 293.81 108.55 298.38 113.12 295.11 114.03 300.64 114.94 295.11 119.51 298.38 116.24 293.81" style="fill: rgb(230, 230, 230); transform-origin: 114.035px 292.895px;" id="elc0b7mb676tf" class="animable"></polygon><polygon points="456.88 275.38 462.42 274.46 456.88 273.55 460.15 268.99 455.59 272.26 454.67 266.72 453.76 272.26 449.2 268.99 452.47 273.55 446.93 274.46 452.47 275.38 449.2 279.94 453.76 276.67 454.67 282.21 455.59 276.67 460.15 279.94 456.88 275.38" style="fill: rgb(230, 230, 230); transform-origin: 454.675px 274.465px;" id="elhba116z6vyi" class="animable"></polygon><polygon points="410.22 412.57 415.76 411.66 410.22 410.75 413.49 406.18 408.93 409.46 408.01 403.92 407.1 409.46 402.54 406.18 405.81 410.75 400.27 411.66 405.81 412.57 402.54 417.14 407.1 413.87 408.01 419.41 408.93 413.87 413.49 417.14 410.22 412.57" style="fill: rgb(230, 230, 230); transform-origin: 408.015px 411.665px;" id="elcabau5cjx" class="animable"></polygon><polygon points="110.68 184.28 115.38 183.5 110.68 182.73 113.46 178.85 109.58 181.63 108.8 176.93 108.03 181.63 104.15 178.85 106.93 182.73 102.23 183.5 106.93 184.28 104.15 188.16 108.03 185.38 108.8 190.08 109.58 185.38 113.46 188.16 110.68 184.28" style="fill: rgb(230, 230, 230); transform-origin: 108.805px 183.505px;" id="elo4276b1xn3s" class="animable"></polygon><polygon points="56.59 182.46 59.03 182.06 56.59 181.65 58.03 179.64 56.02 181.08 55.61 178.64 55.21 181.08 53.2 179.64 54.64 181.65 52.2 182.06 54.64 182.46 53.2 184.47 55.21 183.03 55.61 185.47 56.02 183.03 58.03 184.47 56.59 182.46" style="fill: rgb(230, 230, 230); transform-origin: 55.615px 182.055px;" id="elnyeq9x34fkh" class="animable"></polygon><polygon points="347.59 355.85 353.13 354.94 347.59 354.03 350.86 349.46 346.3 352.73 345.38 347.19 344.47 352.73 339.9 349.46 343.18 354.03 337.64 354.94 343.18 355.85 339.9 360.42 344.47 357.15 345.38 362.68 346.29 357.15 350.86 360.42 347.59 355.85" style="fill: rgb(230, 230, 230); transform-origin: 345.385px 354.935px;" id="elopffu8fwxu" class="animable"></polygon><polygon points="97.98 243.11 103.52 242.2 97.98 241.29 101.25 236.72 96.69 239.99 95.77 234.46 94.86 239.99 90.29 236.72 93.56 241.29 88.03 242.2 93.56 243.11 90.29 247.68 94.86 244.41 95.77 249.95 96.68 244.41 101.25 247.68 97.98 243.11" style="fill: rgb(230, 230, 230); transform-origin: 95.775px 242.205px;" id="el8h502pm6igj" class="animable"></polygon><polygon points="400.7 256.64 406.24 255.73 400.7 254.82 403.97 250.25 399.41 253.52 398.5 247.99 397.58 253.52 393.02 250.25 396.29 254.82 390.75 255.73 396.29 256.64 393.02 261.21 397.58 257.94 398.5 263.48 399.41 257.94 403.97 261.21 400.7 256.64" style="fill: rgb(230, 230, 230); transform-origin: 398.495px 255.735px;" id="elyv7muv1o93p" class="animable"></polygon><polygon points="454.98 217.38 465.3 215.68 454.98 213.98 461.08 205.47 452.57 211.56 450.87 201.24 449.16 211.56 440.65 205.47 446.75 213.98 436.43 215.68 446.75 217.38 440.65 225.89 449.16 219.79 450.87 230.11 452.56 219.79 461.08 225.89 454.98 217.38" style="fill: rgb(230, 230, 230); transform-origin: 450.865px 215.675px;" id="eletgnayhvgb" class="animable"></polygon><polygon points="456.88 69.35 467.2 67.65 456.88 65.95 462.98 57.44 454.46 63.54 452.76 53.21 451.06 63.54 442.55 57.44 448.65 65.95 438.33 67.65 448.65 69.35 442.55 77.86 451.06 71.77 452.76 82.08 454.46 71.77 462.98 77.86 456.88 69.35" style="fill: rgb(230, 230, 230); transform-origin: 452.765px 67.645px;" id="el6g4x9e8rrrq" class="animable"></polygon><polygon points="207.57 117.3 217.9 115.6 207.57 113.89 213.67 105.38 205.16 111.48 203.46 101.16 201.76 111.48 193.25 105.38 199.35 113.89 189.03 115.6 199.35 117.3 193.25 125.81 201.76 119.71 203.46 130.03 205.16 119.71 213.67 125.81 207.57 117.3" style="fill: rgb(230, 230, 230); transform-origin: 203.465px 115.595px;" id="elpz7m7zzr5yb" class="animable"></polygon><polygon points="56.31 301.9 66.63 300.2 56.31 298.5 62.41 289.99 53.9 296.09 52.2 285.77 50.49 296.09 41.98 289.99 48.08 298.5 37.76 300.2 48.08 301.9 41.98 310.41 50.5 304.32 52.2 314.64 53.9 304.32 62.41 310.41 56.31 301.9" style="fill: rgb(230, 230, 230); transform-origin: 52.195px 300.205px;" id="elg68k1x5rcft" class="animable"></polygon><polygon points="307.83 131.2 313.37 130.29 307.83 129.38 311.1 124.81 306.53 128.08 305.62 122.54 304.71 128.08 300.14 124.81 303.42 129.38 297.88 130.29 303.42 131.2 300.14 135.77 304.71 132.5 305.62 138.03 306.53 132.5 311.1 135.77 307.83 131.2" style="fill: rgb(230, 230, 230); transform-origin: 305.625px 130.285px;" id="el3kejgfh95cj" class="animable"></polygon><polygon points="294.19 73.95 299.73 73.04 294.19 72.13 297.46 67.56 292.9 70.83 291.99 65.3 291.07 70.83 286.51 67.56 289.78 72.13 284.24 73.04 289.78 73.95 286.51 78.52 291.07 75.25 291.99 80.78 292.9 75.25 297.46 78.52 294.19 73.95" style="fill: rgb(230, 230, 230); transform-origin: 291.985px 73.04px;" id="elt6lct7pui8b" class="animable"></polygon><polygon points="217.44 53.06 222.97 52.15 217.44 51.24 220.71 46.67 216.14 49.95 215.23 44.41 214.32 49.95 209.75 46.67 213.02 51.24 207.49 52.15 213.02 53.06 209.75 57.63 214.32 54.36 215.23 59.9 216.14 54.36 220.71 57.63 217.44 53.06" style="fill: rgb(230, 230, 230); transform-origin: 215.23px 52.155px;" id="ellciclpxbbgl" class="animable"></polygon><polygon points="378.4 158.12 383.94 157.21 378.4 156.29 381.67 151.73 377.11 155 376.19 149.46 375.28 155 370.71 151.73 373.99 156.29 368.45 157.21 373.99 158.12 370.71 162.69 375.28 159.41 376.19 164.95 377.11 159.41 381.67 162.69 378.4 158.12" style="fill: rgb(230, 230, 230); transform-origin: 376.195px 157.205px;" id="elv3msi4t2gcr" class="animable"></polygon><polygon points="152.16 78.14 157.69 77.23 152.16 76.32 155.43 71.75 150.86 75.03 149.95 69.49 149.03 75.03 144.47 71.75 147.74 76.32 142.2 77.23 147.74 78.14 144.47 82.71 149.04 79.44 149.95 84.98 150.86 79.44 155.43 82.71 152.16 78.14" style="fill: rgb(230, 230, 230); transform-origin: 149.945px 77.235px;" id="elltsu6wfv7v" class="animable"></polygon><path d="M401.72,339.08c-26.89,12.39-45.3,29.76-41.13,38.8s29.35,6.32,56.22-6.07S462.11,342,457.94,333,428.6,326.68,401.72,339.08ZM415,367.83c-23.52,10.84-45.33,13.64-48.73,6.27s12.91-22.13,36.42-33,45.32-13.66,48.73-6.29S438.49,357,415,367.83Z" style="fill: rgb(224, 224, 224); transform-origin: 409.265px 355.449px;" id="elb0mtz7i14c5" class="animable"></path><g id="elcp0xcxp7fe4"><circle cx="411.89" cy="353.26" r="30.5" style="fill: rgb(230, 230, 230); transform-origin: 411.89px 353.26px; transform: rotate(-82.38deg);" class="animable" id="elwf7otx1kcgi"></circle></g><g id="elwuf064phz7"><g style="opacity: 0.2; transform-origin: 411.862px 352.025px;" class="animable" id="elur6xx86atfi"><path d="M393.35,377.48c9.56-1.2,32.61-5.31,48.39-17.77-.25,1.09-.55,2.14-.9,3.23-10,5.1-28.66,15-44.39,16.59A27.7,27.7,0,0,1,393.35,377.48Z" style="fill: rgb(250, 250, 250); isolation: isolate; transform-origin: 417.545px 369.62px;" id="eljpm2iey7dts" class="animable"></path><path d="M386.07,369.43a139.41,139.41,0,0,0,18.31-3.82c12.29-3.67,29.37-12.34,37.25-19.11a27.8,27.8,0,0,1,.71,5.3c-9.83,6.57-33.56,21-53.32,21.53A27.35,27.35,0,0,1,386.07,369.43Z" style="fill: rgb(250, 250, 250); isolation: isolate; transform-origin: 414.205px 359.915px;" id="el1uc1ufawx8x" class="animable"></path><path d="M385.61,337.86a18.12,18.12,0,0,1,1.42-2.25c9.21-2.73,27-7,35-11.09a26.46,26.46,0,0,1,3.55,1.51C415.54,328.35,394.65,335.74,385.61,337.86Z" style="fill: rgb(250, 250, 250); isolation: isolate; transform-origin: 405.595px 331.19px;" id="elr9pg1f2gj3" class="animable"></path><path d="M383.25,342.76a93.12,93.12,0,0,1,21.55-4.27c4.93,0,19.53-5.73,24.69-10.12a11.27,11.27,0,0,1,1.17.89c-12.65,5.34-28.07,18.5-35.18,22.33a78.28,78.28,0,0,1-13.76,5.86,28.2,28.2,0,0,1-.21-7A30.38,30.38,0,0,1,383.25,342.76Z" style="fill: rgb(250, 250, 250); isolation: isolate; transform-origin: 406.022px 342.91px;" id="elzeu7wu1tfql" class="animable"></path></g></g><path d="M382.12,359.73q3.33-.8,6.57-1.91c8.35-2.83,23.41-15,36.73-20.61,5-2.08,7.88-3.28,9.56-3.93a21.91,21.91,0,0,1,1.47,1.91,101.49,101.49,0,0,1-11.85,5.92c-8.48,3.56-17.54,8.37-22.76,12.73-4,3.31-14.08,7.64-18.79,9.25A24.6,24.6,0,0,1,382.12,359.73Z" style="fill: rgb(224, 224, 224); isolation: isolate; transform-origin: 409.285px 348.185px;" id="elepuc5f8bbt8" class="animable"></path><path d="M383.82,365.12a192.25,192.25,0,0,1,23.33-4.3c13.23-1.53,18.23-7.4,23.64-13a36.43,36.43,0,0,1,9.14-6.52,25.27,25.27,0,0,1,1.24,3.48,92.18,92.18,0,0,1-20,12.67c-12.52,5.87-29.91,8.72-36.43,9.65A13.55,13.55,0,0,1,383.82,365.12Z" style="fill: rgb(224, 224, 224); isolation: isolate; transform-origin: 412.495px 354.2px;" id="elieysov9esb" class="animable"></path><path d="M390.72,375.15a106.29,106.29,0,0,0,33-9.88c8.51-4.19,14.56-7.49,18.6-9.79a2.81,2.81,0,0,1,0,.58c-.1.9-.19,1.76-.37,2.62-9.55,5.1-31.64,15.63-50.95,16.7C390.87,375.36,390.79,375.24,390.72,375.15Z" style="fill: rgb(224, 224, 224); isolation: isolate; transform-origin: 416.528px 365.43px;" id="elghesj30s2e9" class="animable"></path><path d="M389.72,332.3a30.58,30.58,0,0,1,25-9.4,13.28,13.28,0,0,1,2.18.29C410.38,326.21,398.32,331.14,389.72,332.3Z" style="fill: rgb(240, 240, 240); isolation: isolate; transform-origin: 403.31px 327.535px;" id="elwz7plveqtdi" class="animable"></path><path d="M398.76,380.75c7.65-1.82,27.18-6.73,35.49-11.28a42.06,42.06,0,0,1,4.78-2.31,22.75,22.75,0,0,1-1.66,2.87c-5.95,2.6-17.43,7.35-23.91,8.41-5.73.91-10.86,1.91-13.93,2.65h0A3.54,3.54,0,0,1,398.76,380.75Z" style="fill: rgb(224, 224, 224); isolation: isolate; transform-origin: 418.895px 374.125px;" id="elpfu3c50clob" class="animable"></path><path d="M424.56,328.48s-11.18,6.92-16.2,7.76a60.82,60.82,0,0,1-9.23.86S415.29,328.81,424.56,328.48Z" style="fill: rgb(224, 224, 224); isolation: isolate; transform-origin: 411.845px 332.79px;" id="els438bj3ra0f" class="animable"></path><path d="M448,331.91a6.1,6.1,0,0,1,3.38,3c3.4,7.38-12.91,22.15-36.42,33s-45.33,13.65-48.73,6.27a6.08,6.08,0,0,1,0-4.48l-5.76,2.65a7.81,7.81,0,0,0,.13,5.61c4.17,9.05,29.35,6.32,56.22-6.07s45.31-29.78,41.14-38.81a7.73,7.73,0,0,0-4.19-3.74Z" style="fill: rgb(224, 224, 224); transform-origin: 409.28px 356.321px;" id="el6yuqqd2vrue" class="animable"></path></g><g id="freepik--Shadow--inject-2" class="animable" style="transform-origin: 250px 448.395px;"><path d="M458.88,448.39c0,3.39-93.52,6.14-208.88,6.14s-208.88-2.75-208.88-6.14,93.52-6.13,208.88-6.13S458.88,445,458.88,448.39Z" style="fill: rgb(245, 245, 245); transform-origin: 250px 448.395px;" id="el4ht93wn5bor" class="animable"></path></g><g id="freepik--Planets--inject-2" class="animable" style="transform-origin: 231.126px 206.719px;"><path d="M82.92,322.75a31,31,0,1,1-23.51,37.06l0-.11A31,31,0,0,1,82.92,322.75Z" style="fill: #437DFF; transform-origin: 89.6666px 353.01px;" id="el9izb13fv1gt" class="animable"></path><g id="elncpxaswk47t"><path d="M82.92,322.75a31,31,0,1,1-23.51,37.06l0-.11A31,31,0,0,1,82.92,322.75Z" style="fill: rgb(255, 255, 255); isolation: isolate; opacity: 0.5; transform-origin: 89.6666px 353.01px;" class="animable" id="elf22tn0tdirt"></path></g><g id="el7scx68lrisg"><path d="M117.49,339.38c-.56.9-1-.34-3,.67a17.16,17.16,0,0,1-6.18,1.47l-.46.87c-.41.91-4.22-.56-4.22-2s0,0,2.94-.87,0,0,.26-2.11-.82-1.17-2-2.64a2,2,0,0,0-2.75-.38h0c-.91.53-.8,1.55-1.66,1.77s-.49.76-.87,1-1,0-1.47,0-1.13-.41-1.43,0a1.49,1.49,0,0,0-.3.76,5.35,5.35,0,0,1-1,0,.62.62,0,0,1-.5-.49,1.21,1.21,0,0,1,0-.38,3.76,3.76,0,0,1,.65-1,1,1,0,0,1,1.09-.3,1,1,0,0,0-.3-1h1.2c.31,0,1.17-2.49,1.25-2.87a.9.9,0,0,0-.42-.79c-.34-.19-.75,0-1.16,0S95.81,329.91,95,330a1.68,1.68,0,0,0-.56.26l-.95.68a1.12,1.12,0,0,0-.41.3,3,3,0,0,0,0,.6.51.51,0,0,1-.34.38c.72,0-.26.72-.42.75-.75.27-2.22-.26-3.09-.34a.58.58,0,0,1-.45,0,.92.92,0,0,1,0-.33c-.23-.53-.41-1.1-.6-1.63s-.61-2.45.34-3,2,0,2.3-1a.75.75,0,0,1,.18-.31c.27-.22.57.31.53.68a5,5,0,0,0,0,1.81c.23.61,1,1,1.47.61-.3-.46.3-1,.83-1s1.13.27,1.62,0a1.2,1.2,0,0,0,.53-1.28,3.43,3.43,0,0,0-.64-1.35,2,2,0,0,1-1.92-.27c-.45-.34-.91-.94-1.43-.71a6,6,0,0,0,.6-.8,9.91,9.91,0,0,0-1.06-.45c-.34-.19-.68-.56-.49-.94a.59.59,0,0,1,.27-.27h0a26.61,26.61,0,0,1,5.88.87c-.61,1.13-.76,3.21,2.07,4.22,4.11,1.48,0,0,3.77-2h0a30.56,30.56,0,0,1,8.07,5.58l-1.66,1.21c-1.73,1.16.57,1.77.57,1.77h2.37c1.28,0,1.17,0,1.25-.27A29.37,29.37,0,0,1,117.49,339.38Z" style="isolation: isolate; opacity: 0.1; transform-origin: 102.706px 332.53px;" class="animable" id="ellyym7fsfskj"></path></g><g id="elpyawqa6hxtf"><path d="M71,341.37a1.77,1.77,0,0,1,0,.46c-.22.79-1.39.52-2.19.75-1.65.53-1.24,3.43-2.86,4.19-.79.34-1.74,0-2.53.34A7.73,7.73,0,0,0,62,348.42a3.76,3.76,0,0,1-3.13.91,30.18,30.18,0,0,1,6.75-15.91,2.27,2.27,0,0,1,.9,0,1.65,1.65,0,0,1,1.1,1.36,5.4,5.4,0,0,1,0,1.88l1.2-.9a1.16,1.16,0,0,1,.33,1.62l0,0a2.65,2.65,0,0,1-1.81.71c-.68.11-1.44.49-1.47,1.13a2,2,0,0,0,.71,1.44c.34.41.68,1.05.38,1.5l2.64-1.54a1.72,1.72,0,0,1,.49-.19A1,1,0,0,1,71,341.37Z" style="isolation: isolate; opacity: 0.2; transform-origin: 64.9425px 341.378px;" class="animable" id="eliyz1t6tle9h"></path></g><g id="elullopliytwo"><path d="M73,337.26l-.22.72a3,3,0,0,0,2.07,0,1.66,1.66,0,0,0,.57-.41,2.3,2.3,0,0,0,.45-1.21,6.91,6.91,0,0,0,0-1.7,1.82,1.82,0,0,0-.9-1.35,1.1,1.1,0,0,0-1.48.41c-.22.49,0,1.09-.26,1.58s-.75.61-.9,1a.75.75,0,0,0,.53.92Z" style="isolation: isolate; opacity: 0.2; transform-origin: 74.1133px 335.669px;" class="animable" id="elgkluypyt7k9"></path></g><g id="elql7q5qy1ash"><path d="M86.12,324.52c-.94.79-2.45-.26-3.58.26s-.9,1.1-1.54,1.21a9.37,9.37,0,0,1-1.06,0c-.38,0-.75.26-.72.6a.9.9,0,0,0,.27.42l.94.87a2.69,2.69,0,0,1,.3.37.8.8,0,0,1-.49,1h0a2,2,0,0,1-1.24,0,2.13,2.13,0,0,1-.75-.19c-.23,0-.38-.49-.23-.71l.26-.27a1,1,0,0,0,.3-.9.69.69,0,0,0-.71-.64l-.49.22-1.62,1c-.76.42-1.7.87-2.45.49a.39.39,0,0,1-.34-.22v-.49a1.26,1.26,0,0,0,0-.61,29.73,29.73,0,0,1,10-4.18,25.79,25.79,0,0,1,3.5-.57h0C86.65,323.05,86.73,324,86.12,324.52Z" style="isolation: isolate; opacity: 0.2; transform-origin: 79.7852px 325.764px;" class="animable" id="elnh6iw4ky9y"></path></g><g id="ell0hx6llejmi"><path d="M79.75,332.4a.65.65,0,0,0-.83.37,1.18,1.18,0,0,0,0,.2l.38.6v-.34c0,.34.42.68.72.41a.78.78,0,0,0,0-1.05Z" style="isolation: isolate; opacity: 0.2; transform-origin: 79.5694px 333.049px;" class="animable" id="elmvz2prhbdi"></path></g><g id="eluseye3qz6ca"><path d="M93.44,341.3c-.49-.53-1.36-.34-2.11-.27s-1.7-.3-1.66-1,.79-.91,1.43-.95a1.88,1.88,0,0,0-1.77-2h-.19a2.36,2.36,0,0,1,0,1.88,1.14,1.14,0,0,1-1.48.62l-.1-.05c-1-.72.22-2.61-.68-3.36a1.83,1.83,0,0,0-1.55,0c-1.81.42-3.77,1.06-4.49,2.79,0,.19-1.5,0-2,0s-.71,1.4-.79,1.89a1.08,1.08,0,0,0,0,.83c0,.3.49.6.34.9s-.38.23-.53.42,1,1.88,1.36,2.07,1.43,0,2.15.34a1.66,1.66,0,0,1,.64,1.69h-.68a2.2,2.2,0,0,1-.75,2.57,3,3,0,0,1,2.68.83s.33.38.56.38a.94.94,0,0,0,.42-.19,3.24,3.24,0,0,0,1.5-2h.76c0-.41,0-1.09-.45-.94s0,0-.27.22-1,0-1-.64a2.39,2.39,0,0,1,.53-1.35c.19-.23.34-.49.53-.76a2.9,2.9,0,0,1,1.58-1.32c1.17-.26,2.11,1,2.68,2,.23.45.34,1.17,0,1.24s-.53-.19-.72,0,0,.61-.37.79-.42,0-.61,0-.41.87,0,1.32.57-.26.87-.45,1.43.3,2.11,0,.57-.56.83-.83,2-.87,2.15-1.85-.38-1.05-.49-1.62S94.15,342,93.44,341.3Z" style="isolation: isolate; opacity: 0.2; transform-origin: 86.1166px 343.439px;" class="animable" id="elasoqm1b47fh"></path></g><g id="el7m9pswxlery"><path d="M71.19,348.65a1.87,1.87,0,0,0,.94,0c.46,0,1.93.42,1.32,1.25s-1.54-.95-2.33-.49c.45,0,.41.86.19,1.31s-.49,1-.19,1.44c.6-.27,1.2.3,1.88.45s1.7-.49,2.57-.34v-1c0-.34.64-.26.94-.49s.68-.49,1-.26,0-.76,0-1.1a5.84,5.84,0,0,1-.79-.86.83.83,0,0,1,.22-1c.23-.12.72,0,1,0a.81.81,0,0,0,.38-.72,6.31,6.31,0,0,1,0-.87H77.6a.6.6,0,0,1-.41.72,2,2,0,0,1-.91,0,5,5,0,0,0-.34-2.6H75c0,.37-.41.6-.79.6a2.08,2.08,0,0,1-.94-.49c-.19-.19-.42-.38-.68-.3a.84.84,0,0,0-.45.87c0,1.35-.57,1-1.14,1.77A1.51,1.51,0,0,0,71.19,348.65Z" style="isolation: isolate; opacity: 0.1; transform-origin: 74.4887px 348.257px;" class="animable" id="elag9jbpucvxq"></path></g><g id="elu58holfkdsl"><path d="M71.83,361.7a3.85,3.85,0,0,1-2.22-.3c-.3-.19-.68-.42-1-.23a.86.86,0,0,0-.38.9c0,.31.34.61.46.95a3.18,3.18,0,0,1,0,2.79,5.37,5.37,0,0,1-4.23-1,4.78,4.78,0,0,1-.34-.42c-.26-.6.57-1.28.42-1.88s-1.32-1.06-.94-1.62.71-.23,1-.38a.8.8,0,0,0,.36-1.06l0,0a2,2,0,0,0-2.53.72c-.64,0-.82-.94-.86-1.55s-.45-1.5-1.1-1.28a.74.74,0,0,0-.41.57c-.49,1.43.68,2.79,1.73,3.77a1.34,1.34,0,0,1,.53.87c0,.37-.22.79-.6.71l1.32,1.47a1,1,0,0,1,.19.49.65.65,0,0,1,0,.34,16.65,16.65,0,0,0-1,1.51,28.47,28.47,0,0,1-2.72-7.54,32.34,32.34,0,0,1-.71-7.28,2.31,2.31,0,0,1,.83-.75,2.48,2.48,0,0,0,1.28-.23c.94-.26,1.36-1.47,2.3-1.84a1.92,1.92,0,0,1,2.11.6,2.73,2.73,0,0,1,.45,2.3,3.78,3.78,0,0,0-.22,1.88c.37,1.1,1.73,1.21,2.86,1.17a1.58,1.58,0,0,0,.87,1.7,1.13,1.13,0,0,0,1.42-.73.8.8,0,0,0,0-.21c.72,0,1.62.45,1.62,1.2a2,2,0,0,1-.83,1.13c-.3.38-.56.95-.26,1.32s1.32,0,1.58.64S72.32,361.62,71.83,361.7Z" style="isolation: isolate; opacity: 0.1; transform-origin: 65.8296px 358.198px;" class="animable" id="el0krpvrx4mfnp"></path></g><g id="elow0hd2vugxa"><path d="M96.42,383.34h-1a2.17,2.17,0,0,1,.18-1.81c.42-.6,1.17-1,1.51-1.7a7.18,7.18,0,0,1,.61-1.32c.64-1,2.15-.94,3.35-.75a1.17,1.17,0,0,1,.49-1.58h0a4.66,4.66,0,0,1,1.89-.3,2.31,2.31,0,0,0,1.73-.52c0-.19.3-.46.53-.53h.53l3.39.41c0-.83-.9-1.28-1.7-1.36s-1.73,0-2.11-.82a3.78,3.78,0,0,1-4.3,1.62.39.39,0,0,1-.3,0c-.34-.46.83-1,.45-1.4l-1.62-.64a.77.77,0,0,1-.6-.41,1.49,1.49,0,0,1,.34-1.25c.34-.41-.19-1.66-.41-2.49s0-2,.94-2h.56c.15,0,.38-.61.46-.95.22-1,1.24-1.62,2.11-2.22a6.5,6.5,0,0,0,.71-.68,4.34,4.34,0,0,0,1.36-2.94,5.9,5.9,0,0,0-1.85,1.77c-.6.68-1.5,1.25-2.3.83a2.3,2.3,0,0,1-1.54,2.49,2.23,2.23,0,0,1-2.57-1.36.88.88,0,0,1,0-1,1.71,1.71,0,0,1,1,0,2.68,2.68,0,0,0,2.48-1.28,3.52,3.52,0,0,1-2.94-1.51,2.26,2.26,0,0,1,.72-3h-.75a2.43,2.43,0,0,1,2-1.85h1.39a1.05,1.05,0,0,0,.87-.94,1.68,1.68,0,0,1-.76-1.59,1.73,1.73,0,0,1,1-1.17.6.6,0,0,1-.57-.49.88.88,0,0,1,.64-.83,2.75,2.75,0,0,1,1.21,0,4,4,0,0,1,2.67,1.29,3.72,3.72,0,0,1,.42,2.15v2.94a3.2,3.2,0,0,0,.87,2.64,2.46,2.46,0,0,0,1.54.37,11.37,11.37,0,0,0,4.6-.94,3.49,3.49,0,0,0,1.85-1.51,4.43,4.43,0,0,0,.38-2.3c0-1.58.3-4.11-1.32-5.09a1.45,1.45,0,0,0-1.55,0c-.3.23-.53.57-.87.68s-1.09-.19-1.54,0-.42.49-.64.79a.72.72,0,0,1-.87.38c-.34-.19,0-.75,0-1.17s-.64-1.62-.49-2.45.94-1.28,1.47-1.89a7.63,7.63,0,0,0,1.24-1.84,1.37,1.37,0,0,1,1.51.45,1.59,1.59,0,0,0,1.55.3c.41.53-.23,1.51.37,1.92h.27a.91.91,0,0,1,0,.65,1.93,1.93,0,0,0,1.13,1.88h.3s0,0,0-.23a3.77,3.77,0,0,0-.64-2.82,3.68,3.68,0,0,1-.26-.57,1.06,1.06,0,0,1,0-.56,2.49,2.49,0,0,1,.22-.65,1.15,1.15,0,0,1,0-.37c.27-.23.64,0,.95,0a2.27,2.27,0,0,0,.82-.34,1.5,1.5,0,0,1,1.21,0c.27.9.53,1.85.76,2.79A31,31,0,0,1,96.42,383.34Z" style="isolation: isolate; opacity: 0.2; transform-origin: 107.79px 363.346px;" class="animable" id="eltdakfchkoq9"></path></g><g id="el0i5ufe29ltb"><path d="M91.82,373.57a4.63,4.63,0,0,0,0,1.89,3.26,3.26,0,0,1-2.42.38A3.36,3.36,0,0,0,91.06,380a1.94,1.94,0,0,1-1.81.34,5.41,5.41,0,0,1-1.58-1.06l-3.77-2.9c-.6.23-.23,1.17.38,1.47s1.32.34,1.62.91,0,1.69.34,2.3a5.54,5.54,0,0,0,1,.56,1.79,1.79,0,0,1,.64,1.85V384a29.87,29.87,0,0,1-13.5-4h0a4.33,4.33,0,0,0,0-.72c0-1.13,1.06-1.88,1.92-2.56A3.39,3.39,0,0,0,77.94,374c-1.47.37-2,2.22-3.28,3a4.18,4.18,0,0,1-1,.49,11.39,11.39,0,0,0-1.78,1.13,29.86,29.86,0,0,1-7.8-7.73,4.2,4.2,0,0,0,.83-2.82c.34-.42.87.34,1.36.37s.86-.71,1.43-.75.79,1.62,1.66,1.92,1.13-.49,1.73-.56,1.32.49,2,.26c2.07-.64.53-2.9.83-4.18.19-.61.94-.72,1.43-1A2.7,2.7,0,0,0,76.51,362a8.84,8.84,0,0,0-.42-2.49,2.61,2.61,0,0,1,.19-2.37c.79-.87,2.34-.3,3.43-.87s1.1-1.62,1.89-2.22a3.92,3.92,0,0,1,2.45-.72,1.94,1.94,0,0,1,.68,0c.41.22.34.87.26,1.28a20.83,20.83,0,0,1-1.17,3.77c1,.45,2.34.87,3.06,0a2.54,2.54,0,0,1,.49-.64,1.38,1.38,0,0,1,1.28,0c.34.75.72,1.47,1.09,2.15a4.41,4.41,0,0,0-4.41,2.86,1.87,1.87,0,0,1-.3.76,1.32,1.32,0,0,1-1.06.45,9.92,9.92,0,0,1-3.54-1.17c-1.21-.37-2.9,0-3.2,1.06,1-.34,1.8.68,2.75,1.05a6.14,6.14,0,0,0,1.69.31,12.79,12.79,0,0,1,4.08,1.05,2.73,2.73,0,0,0,1.69-2.34,5,5,0,0,0,4,2.12,6.54,6.54,0,0,0,0,3.77c.45.9,1.36,1.73,1.32,2.75A1.41,1.41,0,0,0,91.82,373.57Z" style="isolation: isolate; opacity: 0.2; transform-origin: 78.4206px 368.65px;" class="animable" id="elo371axte4g"></path></g><path d="M322.27,58.6a40.76,40.76,0,0,1,4.2-9,38.42,38.42,0,0,1,2.59-3.71,41.57,41.57,0,0,1,8.44-8.21h0c.63-.45,1.22-.87,1.87-1.28A34.17,34.17,0,0,1,343.56,34c.91-.48,1.85-.91,2.81-1.3a38.84,38.84,0,0,1,4.2-1.5,42.57,42.57,0,0,1,5.8-1.28h0a44.88,44.88,0,0,1,7.33-.43,42,42,0,0,1,20.6,5.84h.05a38,38,0,0,1,5.13,3.58c.77.61,1.49,1.24,2.21,1.9s1.44,1.39,2.13,2.13c.48.5.95,1,1.41,1.6s1.16,1.42,1.7,2.18a41.86,41.86,0,0,1,3.21,4.95c.25.48.51,1,.74,1.44A43.25,43.25,0,0,1,402.93,58c.24.67.45,1.34.65,2a42.34,42.34,0,0,1,1.6,9.62c.06,1.15.1,2.29.06,3.44a12.38,12.38,0,0,1-.08,1.73c-.07.92-.15,1.83-.26,2.73A43.79,43.79,0,0,1,403.83,83a32.43,32.43,0,0,1-1.08,3.43,37.67,37.67,0,0,1-1.6,4,41.43,41.43,0,0,1-4,6.65,35.12,35.12,0,0,1-2.88,3.57,42.71,42.71,0,0,1-3.78,3.71,44.78,44.78,0,0,1-4.41,3.34A42.69,42.69,0,0,1,380,111a41.47,41.47,0,0,1-4.91,1.84h0a39.86,39.86,0,0,1-4,1H371a42.39,42.39,0,0,1-25.32-2.72h0c-1.12-.48-2.23-1-3.28-1.6-.76-.41-1.51-.85-2.23-1.3-.91-.55-1.76-1.15-2.61-1.76-.43-.33-.86-.65-1.29-1a40.3,40.3,0,0,1-4.33-3.93,42.45,42.45,0,0,1-9.91-16.84,41.79,41.79,0,0,1-1.81-9.53c-.08-1.35-.12-2.73-.09-4.11a38.75,38.75,0,0,1,.29-3.87A39.32,39.32,0,0,1,322.27,58.6Z" style="fill: #437DFF; transform-origin: 362.688px 72.0733px;" id="elhhjmsawusl" class="animable"></path><g id="eldozvune9h8a"><path d="M322.27,58.6a40.76,40.76,0,0,1,4.2-9,38.42,38.42,0,0,1,2.59-3.71,41.57,41.57,0,0,1,8.44-8.21h0c.63-.45,1.22-.87,1.87-1.28A34.17,34.17,0,0,1,343.56,34c.91-.48,1.85-.91,2.81-1.3a38.84,38.84,0,0,1,4.2-1.5,42.57,42.57,0,0,1,5.8-1.28h0a44.88,44.88,0,0,1,7.33-.43,42,42,0,0,1,20.6,5.84h.05a38,38,0,0,1,5.13,3.58c.77.61,1.49,1.24,2.21,1.9s1.44,1.39,2.13,2.13c.48.5.95,1,1.41,1.6s1.16,1.42,1.7,2.18a41.86,41.86,0,0,1,3.21,4.95c.25.48.51,1,.74,1.44A43.25,43.25,0,0,1,402.93,58c.24.67.45,1.34.65,2a42.34,42.34,0,0,1,1.6,9.62c.06,1.15.1,2.29.06,3.44a12.38,12.38,0,0,1-.08,1.73c-.07.92-.15,1.83-.26,2.73A43.79,43.79,0,0,1,403.83,83a32.43,32.43,0,0,1-1.08,3.43,37.67,37.67,0,0,1-1.6,4,41.43,41.43,0,0,1-4,6.65,35.12,35.12,0,0,1-2.88,3.57,42.71,42.71,0,0,1-3.78,3.71,44.78,44.78,0,0,1-4.41,3.34A42.69,42.69,0,0,1,380,111a41.47,41.47,0,0,1-4.91,1.84h0a39.86,39.86,0,0,1-4,1H371a42.39,42.39,0,0,1-25.32-2.72h0c-1.12-.48-2.23-1-3.28-1.6-.76-.41-1.51-.85-2.23-1.3-.91-.55-1.76-1.15-2.61-1.76-.43-.33-.86-.65-1.29-1a40.3,40.3,0,0,1-4.33-3.93,42.45,42.45,0,0,1-9.91-16.84,41.79,41.79,0,0,1-1.81-9.53c-.08-1.35-.12-2.73-.09-4.11a38.75,38.75,0,0,1,.29-3.87A39.32,39.32,0,0,1,322.27,58.6Z" style="fill: rgb(255, 255, 255); isolation: isolate; opacity: 0.2; transform-origin: 362.688px 72.0733px;" class="animable" id="elbztqnd8gnh"></path></g><g id="el9mv1adn1eyq"><path d="M322.27,58.6a20.75,20.75,0,0,1,4,.42c1.88.4,3.71,1.11,5.61,1.46,2.4.43,4.9.3,7.33.58s5,1,6.6,2.9a142.36,142.36,0,0,0-17.72,2c-2.56.46-5.13.93-7.68,1.17A39.56,39.56,0,0,1,322.27,58.6Z" style="isolation: isolate; opacity: 0.2; transform-origin: 333.11px 62.865px;" class="animable" id="el3z3bje83dg4"></path></g><g id="ela026sds5ttk"><path d="M389.32,75.22a78.07,78.07,0,0,1,10.91-.8,42.87,42.87,0,0,1,4.94.37c-.06.91-.14,1.83-.25,2.72h-.41A38.69,38.69,0,0,1,389.32,75.22Z" style="isolation: isolate; opacity: 0.2; transform-origin: 397.245px 75.9894px;" class="animable" id="elbmrcj8sg7a7"></path></g><g id="elbxfa64knnpa"><path d="M369.09,61.74a4.68,4.68,0,0,1,2-.09,47.47,47.47,0,0,0,8.26-.14c2.41-.19,4.75-.45,7.13-.7a28.8,28.8,0,0,0,5.45-1,22,22,0,0,1,3-.88,12.3,12.3,0,0,1,3.78.23c1.6.27,3.21.52,4.81.8a42.52,42.52,0,0,1,1.6,9.62,16.22,16.22,0,0,1-3.25-.39,49.32,49.32,0,0,0-5.47-1.41c-1.67-.18-3.36.1-5,0a30.19,30.19,0,0,1-5.25-1c-6-1.38-12.32-1.38-18.09-3.47A1.43,1.43,0,0,1,369.09,61.74Z" style="isolation: isolate; opacity: 0.2; transform-origin: 386.583px 64.228px;" class="animable" id="elrt8k1o0laej"></path></g><g id="eli1r19w34bza"><path d="M337.5,37.65c.63-.45,1.22-.86,1.87-1.28a34.1,34.1,0,0,1,4.19-2.4,26.47,26.47,0,0,1,2.81-1.3,2.37,2.37,0,0,1,.57.14,197.31,197.31,0,0,0,29,5.5c5.25.6,10.7,1,15.74,2.52.74.69,1.44,1.39,2.13,2.13a101.31,101.31,0,0,0-16.33-2.68c-4.69-.3-9.41-.08-14.08-.53-4.22-.39-8.42-1.34-12.66-1.12-.93.06-1.87.15-2.82.21a34.9,34.9,0,0,1-9.39-1A9.22,9.22,0,0,1,337.5,37.65Z" style="isolation: isolate; opacity: 0.2; transform-origin: 365.655px 37.815px;" class="animable" id="elbr97u7my91"></path></g><g id="els0mnr9zana"><path d="M363.44,44.27c4.17-.86,8.5-.46,12.74-.06a97.29,97.29,0,0,0,14.68.6c1.46-.07,2.9-.22,4.37-.26.59.7,1.16,1.42,1.7,2.18a40.28,40.28,0,0,1,3.21,5c.25.48.51,1,.74,1.44-.45-.06-.87-.11-1.26-.14-2.5-.2-5-.38-7.47-.76a48.74,48.74,0,0,1-5.62-1.17,29.87,29.87,0,0,1-4.33-1.48c-1.19-.52-2.31-1.13-3.5-1.61a44.42,44.42,0,0,0-4.26-1.44A42.21,42.21,0,0,0,363.44,44.27Z" style="isolation: isolate; opacity: 0.2; transform-origin: 382.16px 48.4646px;" class="animable" id="el2kchhm9inl5"></path></g><g id="elmn88f86zn6n"><path d="M385.86,48.18c1.9-.44,3.89,0,5.79-.38.73-.15,1.41-.41,2.13-.59a15.33,15.33,0,0,1,3.15-.51,41.05,41.05,0,0,1,3.21,4.95,66.08,66.08,0,0,1-7.15-1c-1.31-.26-2.62-.55-3.92-.8-.75-.17-3.35-.37-3.78-.89C385,48.67,385.49,48.29,385.86,48.18Z" style="isolation: isolate; opacity: 0.2; transform-origin: 392.671px 49.175px;" class="animable" id="elvyadqi3ms0i"></path></g><g id="el1n1bs4ttckg"><path d="M329.06,45.88a42.28,42.28,0,0,1,4.2-4.67,36.7,36.7,0,0,1,6.24,1.17,28.47,28.47,0,0,0,5,1c2.21.13,4.42-.34,6.64-.39s4.62.37,6.17,2c-2.87.17-5.75.37-8.62.53-5,.29-10,.49-15,.47C332.15,46,330.61,45.94,329.06,45.88Z" style="isolation: isolate; opacity: 0.2; transform-origin: 343.185px 43.6007px;" class="animable" id="elwe1yo8kgdt"></path></g><g id="elgf35zezchph"><path d="M340.59,36.69c-.31-.09-.74-.21-1.22-.32a34.1,34.1,0,0,1,4.19-2.4A42.29,42.29,0,0,0,350,35.1c3.59.38,7.45.38,10.42,2.5l-4.66-.51a40.54,40.54,0,0,0-9.34-.28,20.32,20.32,0,0,1-3.48.35A11,11,0,0,1,340.59,36.69Z" style="isolation: isolate; opacity: 0.2; transform-origin: 349.895px 35.785px;" class="animable" id="elit4topq3qea"></path></g><g id="el6t9ak94knor"><path d="M350.57,31.16a42.54,42.54,0,0,1,5.8-1.27h0a44.89,44.89,0,0,1,7.33-.44,42,42,0,0,1,20.6,5.9h.05a38,38,0,0,1,5.13,3.58c-2.83,0-6.62-1.11-7.85-1.32-3.2-.55-6.46-1.11-9.69-1.71C364.78,34.55,357.62,33,350.57,31.16Z" style="isolation: isolate; opacity: 0.2; transform-origin: 370.025px 34.1846px;" class="animable" id="eldl7howoae5"></path></g><g id="elzvx3ky0ox5f"><path d="M356.38,29.87a45,45,0,0,1,7.34-.43,42,42,0,0,1,20.58,5.91,6.24,6.24,0,0,0-1.72-.21,12.34,12.34,0,0,0-1.67.27,13.91,13.91,0,0,1-2.14,0,50.26,50.26,0,0,1-8-1.19c-2.41-.61-4.64-1.6-6.95-2.4A50.32,50.32,0,0,0,356.38,29.87Z" style="isolation: isolate; opacity: 0.2; transform-origin: 370.34px 32.4395px;" class="animable" id="elbz3phr79r2"></path></g><g id="elalcwcfoubrn"><path d="M336.25,81.71c.31-.5,1-.62,1.54-.8,2.36-.58,4.33-2.15,6.53-3.16,3.54-1.6,7.53-1.74,11.4-1.85a54.2,54.2,0,0,1,6.5.09,46.5,46.5,0,0,1,5.61,1c4,.93,7.94,2.06,11.86,3.2,7.22,2.11,14.44,4.34,21.84,5.76a12.77,12.77,0,0,1,1.25.34,34.86,34.86,0,0,1-1.6,4c-2.4.09-5-.39-7.22-.44-6.57-.2-13,1.46-19.36,3.37A24.39,24.39,0,0,1,369,94.47a23.11,23.11,0,0,1-7.61-1.31c-2.88-.86-5.77-1.73-8.63-2.62a29.13,29.13,0,0,1-4.42-1.68c-1.2-.65-2.31-1.45-3.48-2.17a21.65,21.65,0,0,0-6.1-2.44,5.19,5.19,0,0,1-1.93-.72A1.46,1.46,0,0,1,336.25,81.71Z" style="isolation: isolate; opacity: 0.2; transform-origin: 369.456px 85.1561px;" class="animable" id="elbzv7y4wsp4r"></path></g><g id="el2paky4nmdnu"><path d="M375.29,89.5a28.72,28.72,0,0,1-8,.54,47.87,47.87,0,0,1-10.26-1,47.67,47.67,0,0,1-7.49-2.75c-1.46-.64-3-1.34-3.86-2.7,8-4.81,18.11-4,27.18-1.9,5.56,1.33,11,3.1,16.44,4.88-.49-.16-2.91,1.17-3.57,1.32a8.35,8.35,0,0,1-3,0C380.06,87.72,377.84,88.83,375.29,89.5Z" style="isolation: isolate; opacity: 0.2; transform-origin: 367.49px 85.0741px;" class="animable" id="elx9cis5zx6uj"></path></g><g id="el2e1j871t39c"><path d="M322,84.61a20.05,20.05,0,0,1,2.89.38c1.67.34,3.64,1.36,3.51,3.06,4-.06,8.35,0,11.67,2.23-1.56.37-3.11.75-4.67,1.15l39.94,6.33a12.83,12.83,0,0,0,3.55.25c2.5-.23,4.68-1.78,7.12-2.4,3-.72,7.68-.07,11.16,1.34a33.94,33.94,0,0,1-2.88,3.56,41.48,41.48,0,0,1-3.78,3.72,44.69,44.69,0,0,1-4.41,3.33c-8.59-.73-17-3.08-25.32-5.42l9.27-.8c1.7-.16,3.53-.34,4.81-1.47-5-.89-10.06-1.58-15.13-2-2.87-.26-5.76-.45-8.65-.63q-7.43-.47-14.86-1a2.43,2.43,0,0,0-1.36.15.89.89,0,0,0-.4,1.18,1.19,1.19,0,0,0,.8.38L339.89,99c1.42.32,3.21,1.25,2.77,2.62-2.63,0-5.28-.09-7.92-.15-.93,0-1.88,0-2.83-.08A42.3,42.3,0,0,1,322,84.61Z" style="isolation: isolate; opacity: 0.2; transform-origin: 359.585px 96.085px;" class="animable" id="elnl8y6zscoi"></path></g><g id="elwnf8xmuhml8"><path d="M336.23,105.37a30.74,30.74,0,0,1,6.71-.25,107.79,107.79,0,0,1,14.8,2.47,16.84,16.84,0,0,0,4,.48c1.51,0,3-.5,4.51-.51,2.37,0,4.59,1,6.81,1.77,1.32.47,4.47.84,6.95,1.6a41,41,0,0,1-4.92,1.84h0l-.13,0a38.14,38.14,0,0,0-9.44-2.14c-7-1-14-2-21.09-1.46a10.6,10.6,0,0,0-2,.32c-.75-.41-1.51-.85-2.23-1.3-.9-.55-1.75-1.15-2.6-1.76C337.09,106,336.66,105.72,336.23,105.37Z" style="isolation: isolate; opacity: 0.2; transform-origin: 358.12px 108.905px;" class="animable" id="ell2vr1x266cm"></path></g><g id="elc40zw2e3abi"><path d="M381.83,102c3.75-1.95,8.18-1.89,12.46-1.43a40.11,40.11,0,0,1-3.78,3.71A36.67,36.67,0,0,1,381.83,102Z" style="isolation: isolate; opacity: 0.2; transform-origin: 388.06px 102.291px;" class="animable" id="ellhp4o49s58g"></path></g><g id="elqn9szxvrbo8"><path d="M345.66,111c6.26-1.09,12.69-.35,18.83,1.14a65.37,65.37,0,0,1,6.49,1.6,42.39,42.39,0,0,1-25.32-2.72Z" style="isolation: isolate; opacity: 0.2; transform-origin: 358.32px 112.524px;" class="animable" id="elapx4czycd7c"></path></g><g id="elgua9qvulz28"><path d="M337.53,106.37c.41-.08.85-.12,1.27-.16,2.94-.25,6-.5,8.82.27-2-.51-4.81.63-7.5,1.65C339.23,107.58,338.38,107,337.53,106.37Z" style="isolation: isolate; opacity: 0.2; transform-origin: 342.575px 107.046px;" class="animable" id="elbfi97rznn7"></path></g><g id="elbybnxwdo3v"><path d="M320.39,67.1A33.42,33.42,0,0,0,320.1,71c0,1.38,0,2.76.08,4.11a10.76,10.76,0,0,0,3.05.08l14.3-1c-1.54-1.67-4.11-1.74-6.36-1.5s-4.67.66-6.7-.37A19.34,19.34,0,0,1,335.91,69c2.79.09,5.56.8,8.31.51,2.4-.23,4.81-1.22,7.21-1a20.4,20.4,0,0,1,3.44.87c12.17,3.52,25.84-3.2,37.68,1.36q-11,1.25-21.95,2.4c3.07,2.78,7.67,2.6,11.76,3.11a30.74,30.74,0,0,1,12.69,4.56A13.42,13.42,0,0,0,399.3,83a10.87,10.87,0,0,0,3.6,0c.32,0,.64-.07,1-.1a43.43,43.43,0,0,0,1.07-5.43c.11-.9.19-1.81.26-2.72.05-.57.06-1.15.08-1.74,0-1.15,0-2.29-.06-3.43a42.51,42.51,0,0,0-1.6-9.63c-.19-.68-.41-1.35-.65-2-2.94,0-5.92.36-8.82-.18-1.2-.22-2.4-.59-3.57-.8a27.77,27.77,0,0,0-4.07-.3L359.15,56c-3.79-.08-7.56-.16-11.32-.6a85.12,85.12,0,0,1,25.69-2.34,6.78,6.78,0,0,0,4-.53c-4.11-3-9.78-1.84-14.84-2.4-2.27-.23-4.51-.85-6.8-.8-2.1,0-4.16.61-6.25.85a39.36,39.36,0,0,1-6.78.07c-5.41-.23-10.84-.49-16.27-.73a40.38,40.38,0,0,0-4.26,9A39.39,39.39,0,0,0,320.39,67.1Zm20.39-13.92a21.58,21.58,0,0,1,5.24-.74l.62.63a14.94,14.94,0,0,1-9,.8C338.7,53.62,339.71,53.4,340.78,53.18Z" style="isolation: isolate; opacity: 0.2; transform-origin: 362.705px 66.2386px;" class="animable" id="elwwrmeg3fg8"></path></g><path d="M77,90.77a25.63,25.63,0,1,1-19.44,30.61A25.63,25.63,0,0,1,77,90.77Z" style="fill: #437DFF; transform-origin: 82.5723px 115.787px;" id="elumwf4xvi8p" class="animable"></path><g id="elndeqcfhs9xj"><path d="M101.52,108.34a2.65,2.65,0,1,0-2.62-2.67v0A2.62,2.62,0,0,0,101.52,108.34Z" style="isolation: isolate; opacity: 0.2; transform-origin: 101.55px 105.69px;" class="animable" id="el4st94hxakap"></path></g><g id="el3te5pkptvit"><path d="M92.91,95.57a2.64,2.64,0,0,0,5.26,0h0a26.48,26.48,0,0,0-3.6-2.3A2.64,2.64,0,0,0,92.91,95.57Z" style="isolation: isolate; opacity: 0.2; transform-origin: 95.54px 95.6252px;" class="animable" id="elgn6nlean1o"></path></g><g id="elo3uk6dbk4c"><path d="M64.57,120a4,4,0,1,0,4,4A4,4,0,0,0,64.57,120Z" style="isolation: isolate; opacity: 0.2; transform-origin: 64.57px 124px;" class="animable" id="el6ambcmx4car"></path></g><g id="eldb86vxqfcx7"><path d="M107,108.08a25.65,25.65,0,0,0-1.49-3.69,4.51,4.51,0,0,0,0,.52A4.09,4.09,0,0,0,107,108.08Z" style="isolation: isolate; opacity: 0.2; transform-origin: 106.251px 106.235px;" class="animable" id="elybfn07pm0u"></path></g><g id="el38thqguipi"><path d="M62.76,107.73a4,4,0,0,0-2.91-3.84,26.2,26.2,0,0,0-2.59,7.65,4.18,4.18,0,0,0,1.4.26,4.06,4.06,0,0,0,4.1-4Z" style="isolation: isolate; opacity: 0.2; transform-origin: 60.01px 107.845px;" class="animable" id="el2hkzwjbcj1l"></path></g><g id="el330sr8bhwel"><path d="M104.2,119.05a4,4,0,0,0,2.91,3.9,26,26,0,0,0,1.1-7.89A4,4,0,0,0,104.2,119.05Z" style="isolation: isolate; opacity: 0.2; transform-origin: 106.206px 119.005px;" class="animable" id="elagehja0zxq"></path></g><g id="el25uvm89iik9"><path d="M79.12,102.26a4.54,4.54,0,1,0,0,.09A.28.28,0,0,0,79.12,102.26Z" style="isolation: isolate; opacity: 0.2; transform-origin: 74.5819px 102.305px;" class="animable" id="el0o1bly450ivo"></path></g><g id="eli3z6c0u6zsk"><path d="M92.56,123.33A2.62,2.62,0,1,1,89.94,126,2.62,2.62,0,0,1,92.56,123.33Z" style="isolation: isolate; opacity: 0.2; transform-origin: 92.5595px 125.95px;" class="animable" id="elr94wnzzji1"></path></g><g id="el4vqzflnnh9c"><path d="M102.39,127.28a2.6,2.6,0,0,0,1.84,2.48,25.69,25.69,0,0,0,2.35-4.54,2.58,2.58,0,0,0-3.63.43A2.62,2.62,0,0,0,102.39,127.28Z" style="isolation: isolate; opacity: 0.2; transform-origin: 104.485px 127.212px;" class="animable" id="elasoqgng332i"></path></g><g id="el2h1z44idobb"><path d="M95.53,137.15a4.33,4.33,0,0,0,0,.72,26,26,0,0,0,7.36-6.51,5.81,5.81,0,0,0-7.22,3.95,5.62,5.62,0,0,0-.23,1.87Z" style="isolation: isolate; opacity: 0.2; transform-origin: 99.162px 134.497px;" class="animable" id="el8udkirg9xba"></path></g><g id="el4d1dzcygkk3"><path d="M59.77,117.77a6,6,0,0,0-2.62-5,25.92,25.92,0,0,0,.43,8.56,1.11,1.11,0,0,0,.21.78A5.85,5.85,0,0,0,59.77,117.77Z" style="isolation: isolate; opacity: 0.2; transform-origin: 58.3731px 117.44px;" class="animable" id="elhc11rnxf5w"></path></g><g id="el8e8cmetn2lb"><path d="M71.75,92.92V92.6a25.68,25.68,0,0,0-10.56,9.17,10.68,10.68,0,0,0,1.6,0A9,9,0,0,0,71.75,92.92Z" style="isolation: isolate; opacity: 0.2; transform-origin: 66.47px 97.2px;" class="animable" id="el5fuqynz8hi2"></path></g><g id="eluts0ldsdvod"><path d="M84,94.23A6,6,0,0,0,89.21,91a25.84,25.84,0,0,0-10.79-.49A5.82,5.82,0,0,0,84,94.23Z" style="isolation: isolate; opacity: 0.2; transform-origin: 83.815px 92.1951px;" class="animable" id="elsdkszgtfhib"></path></g><g id="ellkaf7wm7u2n"><path d="M82.61,134.53a2.65,2.65,0,1,0,2.62,2.68v-.06A2.62,2.62,0,0,0,82.61,134.53Z" style="isolation: isolate; opacity: 0.2; transform-origin: 82.5801px 137.18px;" class="animable" id="elyy2xe3uo1br"></path></g><g id="el49lhseu6fz9"><path d="M76.93,139.33a2.58,2.58,0,0,0-2,.93,28.35,28.35,0,0,0,4.46,1A2.57,2.57,0,0,0,76.93,139.33Z" style="isolation: isolate; opacity: 0.2; transform-origin: 77.16px 140.295px;" class="animable" id="elfzwmvaoywt"></path></g><g id="elh2liruw2msb"><path d="M66.55,133.13a2.65,2.65,0,0,0-1.92.9,23.72,23.72,0,0,0,4,3.26,2.46,2.46,0,0,0,.55-1.51,2.65,2.65,0,0,0-2.64-2.65Z" style="isolation: isolate; opacity: 0.2; transform-origin: 66.905px 135.21px;" class="animable" id="elck0y3ohnk6b"></path></g><g id="elp8ej06lnjd"><path d="M96.72,111.31a.61.61,0,1,0-.61-.61h0A.63.63,0,0,0,96.72,111.31Z" style="isolation: isolate; opacity: 0.2; transform-origin: 96.72px 110.7px;" class="animable" id="elxxgltbz19yc"></path></g><g id="eld8rv8a4xjre"><path d="M100.27,101.48a.62.62,0,0,0,0-1.23.58.58,0,0,0-.58.58v0A.62.62,0,0,0,100.27,101.48Z" style="isolation: isolate; opacity: 0.2; transform-origin: 100.25px 100.865px;" class="animable" id="eljlmknuyvibd"></path></g><g id="el560c93x5x1e"><path d="M104.89,111.31a.61.61,0,1,0-.61-.61h0A.61.61,0,0,0,104.89,111.31Z" style="isolation: isolate; opacity: 0.2; transform-origin: 104.89px 110.7px;" class="animable" id="eloxooxjs75uk"></path></g><g id="elmiwywqt8vro"><path d="M83.86,96.21a.58.58,0,0,0,.58-.58h0a.57.57,0,0,0-.55-.61h0a.61.61,0,0,0-.61.61.58.58,0,0,0,.58.58Z" style="isolation: isolate; opacity: 0.2; transform-origin: 83.8607px 95.615px;" class="animable" id="el4t15jly0eog"></path></g><g id="elh1lgpj3pzf8"><path d="M76.21,107.15a.58.58,0,0,0-.59.58h0a.59.59,0,0,0,.56.61h0a.61.61,0,0,0,.61-.61.58.58,0,0,0-.58-.58Z" style="isolation: isolate; opacity: 0.2; transform-origin: 76.2048px 107.745px;" class="animable" id="elj86r7mtwbbp"></path></g><g id="elpwxhrlua8r"><path d="M72.1,124.05a.58.58,0,0,0-.58-.58h0a.58.58,0,0,0-.58.58h0a.57.57,0,0,0,.55.61h0A.61.61,0,0,0,72.1,124.05Z" style="isolation: isolate; opacity: 0.2; transform-origin: 71.5193px 124.065px;" class="animable" id="el1kq7nb0jiq2"></path></g><g id="elotfp8z2yg1t"><path d="M62.15,117.19a.62.62,0,0,0,.61.61.61.61,0,0,0,.61-.61.61.61,0,0,0-.61-.61h0A.61.61,0,0,0,62.15,117.19Z" style="isolation: isolate; opacity: 0.2; transform-origin: 62.76px 117.19px;" class="animable" id="el03ubx3fits4e"></path></g><g id="el0uhjrx2qi7bl"><path d="M88.54,120.07a.61.61,0,0,0,.61.61.61.61,0,1,0,0-1.22h0A.61.61,0,0,0,88.54,120.07Z" style="isolation: isolate; opacity: 0.2; transform-origin: 89.15px 120.07px;" class="animable" id="el80kr9dhontv"></path></g><g id="elwj87oid090l"><circle cx="88.54" cy="112.68" r="0.61" style="isolation: isolate; opacity: 0.2; transform-origin: 88.54px 112.68px;" class="animable" id="el5hs9xkr3boe"></circle></g><g id="eli0z3wgj1hil"><path d="M94,131.15a.58.58,0,0,0-.58.58v0a.58.58,0,0,0,.58.59h0a.58.58,0,0,0,.61-.56v0A.61.61,0,0,0,94,131.15Z" style="isolation: isolate; opacity: 0.2; transform-origin: 94.015px 131.735px;" class="animable" id="el5lu82vesxyd"></path></g><g id="elywhk627a8z"><path d="M67.16,103.69a.62.62,0,0,0,0-1.23.63.63,0,0,0-.62.61.62.62,0,0,0,.61.62Z" style="isolation: isolate; opacity: 0.2; transform-origin: 67.1207px 103.075px;" class="animable" id="ely8uevh4wzw"></path></g><g id="elzvnykih25j"><path d="M80,102.84a.58.58,0,0,0,.61-.55v0a.61.61,0,0,0-.61-.61.58.58,0,0,0-.58.58v0a.58.58,0,0,0,.58.58Z" style="isolation: isolate; opacity: 0.2; transform-origin: 80.015px 102.26px;" class="animable" id="el5v2jbqkx3ld"></path></g><g id="eldtt7qsojnsd"><path d="M79.38,133.13a.61.61,0,0,0-.64.58.61.61,0,0,0,1.22.06v0A.62.62,0,0,0,79.38,133.13Z" style="isolation: isolate; opacity: 0.2; transform-origin: 79.3498px 133.74px;" class="animable" id="el6mugbhw0op4"></path></g><g id="elyg2pja7nebj"><path d="M78,126a.58.58,0,0,0-.61.55v0a.61.61,0,0,0,.61.61.58.58,0,0,0,.58-.58v0A.58.58,0,0,0,78,126Z" style="isolation: isolate; opacity: 0.2; transform-origin: 77.985px 126.58px;" class="animable" id="elkotl8spfh8"></path></g><g id="elutxih7qkunk"><path d="M63.35,129.32a.58.58,0,0,0-.59.58v0a.58.58,0,0,0,.59.58h0A.58.58,0,0,0,64,130v0A.61.61,0,0,0,63.35,129.32Z" style="isolation: isolate; opacity: 0.2; transform-origin: 63.3821px 129.902px;" class="animable" id="elq0pkmblo62p"></path></g><g id="elpuvdlm1di1d"><path d="M86.62,139.18a.62.62,0,1,0,.61.61h0A.61.61,0,0,0,86.62,139.18Z" style="isolation: isolate; opacity: 0.2; transform-origin: 86.6101px 139.8px;" class="animable" id="eld7i7r5f6fkk"></path></g><g id="ell34s1gkgi5t"><path d="M89.94,103.63a1.4,1.4,0,1,0-1.4-1.4v0a1.37,1.37,0,0,0,1.37,1.37Z" style="isolation: isolate; opacity: 0.2; transform-origin: 89.94px 102.23px;" class="animable" id="el8ruz9twwby4"></path></g><g id="eln94kyi3ixbe"><path d="M89.94,97a1.4,1.4,0,1,0-1.4-1.39v0A1.36,1.36,0,0,0,89.91,97Z" style="isolation: isolate; opacity: 0.2; transform-origin: 89.9398px 95.6px;" class="animable" id="eliefovl12yon"></path></g><g id="eler5a276iqa7"><path d="M75,97a1.45,1.45,0,1,0-1.45-1.45A1.45,1.45,0,0,0,75,97Z" style="isolation: isolate; opacity: 0.2; transform-origin: 75px 95.55px;" class="animable" id="eleurknd5o0p"></path></g><g id="el00u4s88h4tnrq"><path d="M86.62,133.13a1.4,1.4,0,1,0-1.39,1.4,1.36,1.36,0,0,0,1.39-1.34Z" style="isolation: isolate; opacity: 0.2; transform-origin: 85.22px 133.13px;" class="animable" id="elgtuwitsoyns"></path></g><g id="elvn5c16l9k6o"><path d="M72.1,134.38a1.4,1.4,0,1,0,1.4,1.4,1.4,1.4,0,0,0-1.4-1.4Z" style="isolation: isolate; opacity: 0.2; transform-origin: 72.1px 135.78px;" class="animable" id="elqfti10h93or"></path></g><g id="el0ngb27cqzco"><path d="M67.16,129.12a1.4,1.4,0,0,1,0,2.79,1.4,1.4,0,1,1,0-2.79Z" style="isolation: isolate; opacity: 0.2; transform-origin: 67.0417px 130.515px;" class="animable" id="elj2er7cupteq"></path></g><g id="el67pa5dp38bm"><path d="M89.94,135.78a1.4,1.4,0,1,0,1.37,1.42v0a1.37,1.37,0,0,0-1.37-1.37Z" style="isolation: isolate; opacity: 0.2; transform-origin: 89.9101px 137.18px;" class="animable" id="elsus67l0zrg"></path></g><g id="el443hbho7m57"><path d="M80.57,118.58a1.4,1.4,0,1,0-1.4-1.39A1.43,1.43,0,0,0,80.57,118.58Z" style="isolation: isolate; opacity: 0.2; transform-origin: 80.57px 117.18px;" class="animable" id="el9sou5cn6o8"></path></g><g id="el475v7g2koe8"><path d="M100.27,122.83a1.4,1.4,0,0,0,.06-2.79,1.4,1.4,0,0,0-1.43,1.37v0a1.37,1.37,0,0,0,1.37,1.37Z" style="isolation: isolate; opacity: 0.2; transform-origin: 100.243px 121.435px;" class="animable" id="elwt2ja3oykra"></path></g><g id="elrlwcf8zhe4"><path d="M68.55,115.06a1.4,1.4,0,1,0,1.37,1.43v-.06a1.37,1.37,0,0,0-1.37-1.37Z" style="isolation: isolate; opacity: 0.2; transform-origin: 68.5202px 116.46px;" class="animable" id="els6ni84ciqka"></path></g><g id="elx0q5mvjautc"><path d="M62.76,111.78a1.4,1.4,0,1,1-1.39,1.39A1.39,1.39,0,0,1,62.76,111.78Z" style="isolation: isolate; opacity: 0.2; transform-origin: 62.77px 113.18px;" class="animable" id="elfgklrepgku9"></path></g><path d="M103,72.51A6.54,6.54,0,1,1,96.48,66,6.54,6.54,0,0,1,103,72.51Z" style="fill: #437DFF; transform-origin: 96.4601px 72.54px;" id="elb7q80m8zuil" class="animable"></path></g><g id="freepik--speech-bubble--inject-2" class="animable" style="transform-origin: 407.797px 200.004px;"><path d="M422,179.47a26,26,0,0,0-38.18,34.15l-2.28,7.48,8.24-.7c.12.09.22.19.33.28A26.05,26.05,0,1,0,422,179.47Z" style="fill: #437DFF; transform-origin: 406.001px 200.004px;" id="elzy7lnmdmgv" class="animable"></path><g id="el8f6xw7sxfe8"><path d="M422,179.47a26,26,0,0,0-38.18,34.15l-2.28,7.48,8.24-.7c.12.09.22.19.33.28A26.05,26.05,0,1,0,422,179.47Z" style="fill: rgb(255, 255, 255); opacity: 0.7; transform-origin: 406.001px 200.004px;" class="animable" id="elo9ijir5gntl"></path></g><path d="M435.42,200.05h0a.25.25,0,0,1-.24-.26,25.65,25.65,0,0,0-10.47-21.74.25.25,0,0,1-.05-.35.24.24,0,0,1,.34,0,26.13,26.13,0,0,1,10.68,22.16A.25.25,0,0,1,435.42,200.05Z" style="fill: #437DFF; transform-origin: 430.156px 188.84px;" id="el6y5y2cccplg" class="animable"></path><path d="M434.37,207.71l-.09,0a.26.26,0,0,1-.14-.33,9.12,9.12,0,0,0,.69-3.68.25.25,0,0,1,.24-.26.27.27,0,0,1,.26.25,9.73,9.73,0,0,1-.72,3.88A.26.26,0,0,1,434.37,207.71Z" style="fill: #437DFF; transform-origin: 434.728px 205.575px;" id="eltpzp099zjf" class="animable"></path><path d="M417.46,192.64a5.81,5.81,0,0,0-5.64-.87,7.48,7.48,0,0,0-3.46,2.67,9.12,9.12,0,0,0-1.41,2.49,9.12,9.12,0,0,0-1.41-2.49,7.45,7.45,0,0,0-3.47-2.67,5.79,5.79,0,0,0-5.63.87c-1.67,1.35-1.95,3.83-1.45,5.92a14.59,14.59,0,0,0,3.22,5.77c2.82,3.24,5.33,5.7,8.74,7.47,4.23-2.42,5.91-4.23,8.74-7.47a14.72,14.72,0,0,0,3.22-5.77C419.4,196.47,419.13,194,417.46,192.64Z" style="fill: #437DFF; transform-origin: 406.948px 201.598px;" id="el9y2f4ir89zs" class="animable"></path></g><g id="freepik--Alien--inject-2" class="animable" style="transform-origin: 249.55px 285.373px;"><path d="M338.42,198a22.38,22.38,0,0,1,15.71-16.12A81.2,81.2,0,0,0,341.25,167a25.52,25.52,0,0,1-20.37,16.86" style="fill: #437DFF; transform-origin: 337.505px 182.5px;" id="eloj0krxv6ndn" class="animable"></path><path d="M337.74,163.36c-1.19,1.26,2.83,7,9,12.8s12.1,9.49,13.29,8.23-2.83-7-9-12.8S338.93,162.1,337.74,163.36Z" style="fill: #437DFF; transform-origin: 348.885px 173.875px;" id="elvtwe032j2b" class="animable"></path><g id="el0762qm2rwa4v"><path d="M325.24,182.86l14.39,11.54a25.67,25.67,0,0,1,3.7-5.74l-11-9.5A28.63,28.63,0,0,1,325.24,182.86Z" style="opacity: 0.3; transform-origin: 334.285px 186.78px;" class="animable" id="elij6wi6rv9ic"></path></g><path d="M338.21,166.58c5.69,5.93,11.51,11.51,17.68,16.94a58.9,58.9,0,0,1-17.68-16.94Z" id="elbml2sozotzv" class="animable" style="transform-origin: 347.05px 175.05px;"></path><path d="M234.82,401.31l-4.38-2.88a93.81,93.81,0,0,0-31.25,6.12c-2.22-5.15-6.7-9.76-12.58-10.9-7.92-1.54-15.93,3.83-19,10.67s-2.14,14.63-.18,21.83A83.22,83.22,0,0,0,174,442.83c1.32,2.5,2.88,5.07,5.46,6.53,4,2.23,9,1.22,13.53.13l53.19-6.31Z" style="fill: #437DFF; transform-origin: 205.902px 422.038px;" id="el7gjpto2e8lo" class="animable"></path><path d="M219.32,340.67c-8.41,2.06-14.22,6.59-19.64,12.81S188.12,366.22,185,373.66a29.14,29.14,0,0,0-2.41,7.91,11.31,11.31,0,0,0,1.78,7.93c2.35,3.25,6.63,4.8,10.7,5.94,4.36,1.22,8.92,2.21,13.43,1.72,5.92-.65,11.17-3.78,15.56-7.44a53,53,0,0,0,16.86-25.26c1.85-6.19,2.33-13.27-1.54-18.67-4.28-6-13.77-8.22-20.61-4.87" style="fill: #437DFF; transform-origin: 212.391px 368.322px;" id="eledpecgul73b" class="animable"></path><path d="M324.62,375.08c-.71-14.72-2.06-28.88-12.12-39.6-6.7-7.12-19.26-5.79-29-6.75s-19.49.66-29,3c-10,2.46-20.34,6.1-26.77,14.15-7.55,9.44-7.94,22.65-7.19,34.75,1.06,17.07,11.14,24.49,15.27,41.09a56.85,56.85,0,0,0,5.17,13.47c2.26,4,1.6,15.69,5.92,17.31a20.68,20.68,0,0,0,12.78.63c4.48-1,12.1-1.74,16.55-2.9,7.19-1.86,14.53-3,21.61-5.17,13.55-4.21,20.25-14.88,23.54-26.44S325.2,387.09,324.62,375.08Z" style="fill: #437DFF; transform-origin: 272.549px 391.151px;" id="el9d9ymco7ui7" class="animable"></path><path d="M367.26,240.78c-10.72-41.8-50.32-72.27-92.74-80.23-32.9-6.17-68.48-.1-95.9,19.11S133,231.6,133.94,265.06c.6,21.44,8.73,42.26,21,59.86,9.52,13.67,33,33.42,53.86,34.94l83.49,2c7.15-1.77,28.48-10.66,43.17-22.75C363.89,315.69,376.42,276.48,367.26,240.78Z" style="fill: #437DFF; transform-origin: 252.062px 260.046px;" id="el9k78lxczcuu" class="animable"></path><path d="M267.59,267.35c-10.54,2.85-23.18,4.9-34,4.5l-1.05.4c1.55,8.29,4.68,19.46,11,22.85A15.72,15.72,0,0,0,263,291.45C268,285.64,267.59,275.66,267.59,267.35Z" style="fill: rgb(38, 50, 56); transform-origin: 250.069px 282.172px;" id="el5m8afovnxqn" class="animable"></path><path d="M242.2,294.19c12.16,7.91,22.13-1.38,23.84-8.38-4.58.11-8.62-.4-14.71,2A22.86,22.86,0,0,0,242.2,294.19Z" style="fill: rgb(220, 87, 83); transform-origin: 254.12px 291.515px;" id="el0jl64349xyqr" class="animable"></path><path d="M308.15,257.39c-12.7,9.91-27.81,13.09-33.75,7.08s-.47-18.89,12.23-28.81,27.81-13.09,33.75-7.09S320.85,247.47,308.15,257.39Z" style="fill: rgb(38, 50, 56); transform-origin: 297.39px 246.522px;" id="elmnfcu3t1gqp" class="animable"></path><path d="M299.73,215.67a2.36,2.36,0,0,1-2.13-.84C288.36,204.31,278,208,277.84,208c-1.55.56-3.11-.52-3.46-2.45a4.1,4.1,0,0,1,2.19-4.55c.55-.2,13.6-4.85,25.07,8.22a4.33,4.33,0,0,1,.05,5.14A3,3,0,0,1,299.73,215.67Z" style="fill: rgb(38, 50, 56); transform-origin: 288.398px 207.863px;" id="elvopyh6f3vt" class="animable"></path><path d="M189.39,263.33c13.32,9,28.64,11.1,34.22,4.74s-.69-18.78-14-27.76-28.64-11.1-34.22-4.74S176.07,254.35,189.39,263.33Z" style="fill: rgb(38, 50, 56); transform-origin: 199.499px 251.823px;" id="el2900v3blb3" class="animable"></path><path d="M196.61,207.86a2.38,2.38,0,0,0,2.14-.84c9.24-10.52,19.64-6.83,19.76-6.78,1.54.55,3.1-.52,3.46-2.46a4.11,4.11,0,0,0-2.2-4.55c-.54-.19-13.6-4.85-25.06,8.22a4.33,4.33,0,0,0-.06,5.15A2.94,2.94,0,0,0,196.61,207.86Z" style="fill: rgb(38, 50, 56); transform-origin: 207.946px 200.075px;" id="elxqld89wt10b" class="animable"></path><ellipse cx="196.37" cy="283.15" rx="16.27" ry="8.74" style="fill: rgb(238, 193, 187); transform-origin: 196.37px 283.15px;" id="elrrya3r34x6r" class="animable"></ellipse><ellipse cx="302.51" cy="278.79" rx="16.31" ry="8.74" style="fill: rgb(238, 193, 187); transform-origin: 302.51px 278.79px;" id="elh9t96mtj0xn" class="animable"></ellipse><path d="M244.51,175.59a31.2,31.2,0,0,0,12.51-24c.09-4.89-1.21-10-4.61-13.67-3.11-3.35-8.14-5.35-12.65-4-4.26,1.29-7.9,5.45-7.61,10.07.31,5.06,4.49,8.81,9,10.38a17.54,17.54,0,0,0,13.31-1.06,18.42,18.42,0,0,0,8.72-10c3.91-10.13-1.25-21-9.77-26.86a2.5,2.5,0,0,0-2.52,4.32c5.51,3.8,9.38,10.41,8.51,17.25s-6.07,12.29-13,12.25c-3.11,0-6.56-1.27-8.34-4s-.71-5.48,1.86-7c2.72-1.6,6.11-.52,8.3,1.5,2.69,2.49,3.73,6.19,3.81,9.76a25.88,25.88,0,0,1-10,20.74,2.58,2.58,0,0,0-.89,3.42,2.5,2.5,0,0,0,3.42.89Z" style="fill: #437DFF; transform-origin: 248.321px 146.017px;" id="elaydm9hjx079" class="animable"></path><path d="M309.6,232a14.83,14.83,0,0,0-.62,3.28,4.86,4.86,0,0,0,.9,3.15,4,4,0,0,0,4.77,1.05,4.84,4.84,0,0,0,2.65-4.24,4.73,4.73,0,0,0-2.63-4.37,3.76,3.76,0,0,0-4.69,1.49" style="fill: rgb(255, 255, 255); transform-origin: 313.136px 235.213px;" id="el9s3o60jnk5" class="animable"></path><path d="M209.21,252.7a14.08,14.08,0,0,0-.62,3.28,4.81,4.81,0,0,0,.89,3.15,4.06,4.06,0,0,0,4.77,1.05,4.86,4.86,0,0,0,2.65-4.24,4.69,4.69,0,0,0-2.63-4.37,3.76,3.76,0,0,0-4.69,1.48" style="fill: rgb(255, 255, 255); transform-origin: 212.74px 255.905px;" id="elp3bbcfrw1io" class="animable"></path><path d="M248.7,318.63l7.24,25.43a4.36,4.36,0,0,0,2.9,3l24.77,7.7a4.61,4.61,0,0,1,1.1,8.15l-21.62,15.61a4.8,4.8,0,0,0-2,3.84l-.21,26.7a4.6,4.6,0,0,1-7.27,3.82L233,397.11a4.34,4.34,0,0,0-4.12-.63l-24.9,8.8a4.44,4.44,0,0,1-5.6-5.79l8.9-25.37a4.66,4.66,0,0,0-.57-4.23l-15.19-21.26a4.72,4.72,0,0,1,3.82-7.4l26.1.1a4.6,4.6,0,0,0,3.77-2l15.52-21.94A4.42,4.42,0,0,1,248.7,318.63Z" style="fill: #437DFF; transform-origin: 238.695px 364.556px;" id="el88cijg5fk8c" class="animable"></path><g id="elmr09sr5uuic"><path d="M248.7,318.63l7.24,25.43a4.36,4.36,0,0,0,2.9,3l24.77,7.7a4.61,4.61,0,0,1,1.1,8.15l-21.62,15.61a4.8,4.8,0,0,0-2,3.84l-.21,26.7a4.6,4.6,0,0,1-7.27,3.82L233,397.11a4.34,4.34,0,0,0-4.12-.63l-24.9,8.8a4.44,4.44,0,0,1-5.6-5.79l8.9-25.37a4.66,4.66,0,0,0-.57-4.23l-15.19-21.26a4.72,4.72,0,0,1,3.82-7.4l26.1.1a4.6,4.6,0,0,0,3.77-2l15.52-21.94A4.42,4.42,0,0,1,248.7,318.63Z" style="fill: rgb(255, 255, 255); opacity: 0.7; transform-origin: 238.695px 364.556px;" class="animable" id="elsd7sirwoso"></path></g><g id="el4yru27yolte"><g style="opacity: 0.3; transform-origin: 215.439px 383.507px;" class="animable" id="el5mkjs3fhf3s"><path d="M227.84,369.73A25.82,25.82,0,0,1,205.17,393l-5.69,2.92a25.1,25.1,0,0,0,28.35-8.82,16.74,16.74,0,0,0,3.53-8.81A10.08,10.08,0,0,0,227.84,369.73Z" id="ellod3p6i27s9" class="animable" style="transform-origin: 215.439px 383.507px;"></path></g></g><path d="M195.24,369.58c4.61-2.67,9.33-5.37,14.64-6.52s11.41-.49,15.43,2.94c4.32,3.69,5.26,9.95,3.15,15s-6.82,8.82-12.1,11.16-12.72,3.24-18.53,4" style="fill: #437DFF; transform-origin: 212.391px 379.35px;" id="eloqei57p4ccc" class="animable"></path><g id="eltt01m6npg3"><g style="opacity: 0.3; transform-origin: 252.061px 421.437px;" class="animable" id="elt94o889me6"><path d="M275.62,408.54c-1.39.78-9.35.8-10.85.26a7.2,7.2,0,0,1-2.66-2.23,26.21,26.21,0,0,0-15.7-8.69,21.48,21.48,0,0,0-17.06,4.92c-5.68,5.06-6.46,13.47-5.39,21s6.27,15.78,11.37,21.42l24.91-30.84,20.33-6" id="elrnrjvs0bwp" class="animable" style="transform-origin: 252.061px 421.437px;"></path></g></g><path d="M257.22,452.62c-4.1,1.43-8.77,2.84-12.75,1.09-2.59-1.14-4.34-3.42-5.84-5.66a80.43,80.43,0,0,1-8-15.15c-2.62-6.61-4.31-13.89-2.17-20.62s9.1-12.51,16.73-11.77c6,.58,10.86,4.91,13.41,9.88s3.17,10.55,3.74,16" style="fill: #437DFF; transform-origin: 244.914px 427.484px;" id="elrwrr9ki45xq" class="animable"></path><path d="M257.22,452.62c-13.17,5.16-16.55,0-22.75-10.87-6.71-12-13-30.47,1.52-39.37,9.34-5.78,20.09.34,23.66,9.84,1.78,4.54,2.26,9.4,2.7,14.18-.56-4.77-1.16-9.61-3-14-3.55-9.1-14-15-23-9.39-14,8.71-7.73,26.8-1.36,38.5,6,10.79,9.13,15.93,22.24,11.15Z" id="elkgvifcxvya" class="animable" style="transform-origin: 244.761px 427.383px;"></path><path d="M259.6,414.35a75.39,75.39,0,0,1,30.42-9.1,134.59,134.59,0,0,0-30.42,9.1Z" id="eldf9ptdjx48a" class="animable" style="transform-origin: 274.81px 409.8px;"></path><g id="elil5gryltpvn"><g style="opacity: 0.3; transform-origin: 267.559px 387.972px;" class="animable" id="el25zl6w15mwk"><path d="M241.48,375.27a14.8,14.8,0,0,0,2.73,9.2,30.89,30.89,0,0,0,6.87,6.92,51,51,0,0,0,20.33,9.89,34,34,0,0,0,22.24-2.47c-9.6-.82-18.58-5.05-26.85-10s-16.09-10.69-24.69-15" id="el0j3x3n6ee91m" class="animable" style="transform-origin: 267.559px 387.972px;"></path></g></g><path d="M285.34,348.84c-.18-.44-5.8,17.33-5.8,17.33-8.44-1.93-17.41-3.69-26-2.37-2.53.39-6.53,1.12-8.66,2.43s-2.18,4.56-3,6.78c-1.83,5.15,1.67,8.54,5.31,11.53,11.46,9.39,28,14.51,43.21,16.53,4.44.6,9.27.9,13.1-1.22,3.23-1.79,5.15-5,6.75-8.14,5.13-10.07,4.85-26.19,2.51-37.15" style="fill: #437DFF; transform-origin: 277.874px 375.171px;" id="elckvf5fn1vqt" class="animable"></path><path d="M197.83,401.91a56.11,56.11,0,0,1,7.7,23.52,125.66,125.66,0,0,0-7.7-23.52Z" id="elagd3r6ond4" class="animable" style="transform-origin: 201.68px 413.67px;"></path><path d="M319.47,353.51a121.55,121.55,0,0,1-6.31,30.65c-3.8,11.54-9.24,18.9-22.44,18-13.91-1.42-27.33-6.77-39.1-14.22-2-1.27-4.58-3.11-6.43-4.54-4.06-3.55-5.79-9.73-3-14.57,4.76-7.69,19.41-6.1,27.19-5.09A70.11,70.11,0,0,1,279.58,366l-.18.09,4.8-15.68-4.53,15.76,0,.13-.14,0c-9-2.58-34.78-7.16-37.76,5.15-1.19,4.17.73,8.65,3.86,11.45,1.85,1.4,4.44,3.21,6.4,4.46,11,7.1,36.26,18.18,48.9,12.81,6.69-2.7,9.62-9.79,11.88-16.15a126.48,126.48,0,0,0,6.7-30.51Z" id="elwjs00f86vdn" class="animable" style="transform-origin: 280.168px 376.322px;"></path><path d="M191.21,371.89a36.08,36.08,0,0,1,26.2-9.23,48.57,48.57,0,0,0-26.2,9.23Z" id="el4rq5q73l7p" class="animable" style="transform-origin: 204.31px 367.246px;"></path><path d="M170.78,190.29a22.41,22.41,0,0,1-15.18-16.62,80.68,80.68,0,0,0-15.59,12A25.49,25.49,0,0,1,155.65,207" style="fill: #437DFF; transform-origin: 155.395px 190.335px;" id="elm7gbnl7966" class="animable"></path><g id="el8p0bu35m8qd"><ellipse cx="147.31" cy="178.44" rx="15.32" ry="3.14" style="fill: #437DFF; transform-origin: 147.31px 178.44px; transform: rotate(-43.3deg);" class="animable" id="el11yx2kactyz"></ellipse></g><g id="elfctq1hbs19a"><path d="M154.89,202.57l12.37-13.7a25.61,25.61,0,0,1-5.51-4L151.62,195.3A28.52,28.52,0,0,1,154.89,202.57Z" style="opacity: 0.3; transform-origin: 159.44px 193.72px;" class="animable" id="el86qd23ii9qs"></path></g><path d="M139.4,188.66c6.26-5.33,12.16-10.82,17.94-16.65a58.72,58.72,0,0,1-17.94,16.65Z" id="elwd3pluqwge" class="animable" style="transform-origin: 148.37px 180.335px;"></path><path d="M129.39,263.24a.37.37,0,0,1-.38-.37c-.19-17.33,3.63-31.88,12.36-47.19a.37.37,0,0,1,.65.37c-8.66,15.19-12.44,29.62-12.26,46.81a.37.37,0,0,1-.37.38Z" style="fill: #437DFF; transform-origin: 135.536px 239.366px;" id="elc6tttkj2drn" class="animable"></path><path d="M128.93,265.47a15.54,15.54,0,0,0,0,2.46,9.15,9.15,0,0,0,.25,1.89.37.37,0,0,0,.72-.2,8.47,8.47,0,0,1-.23-1.75,17.48,17.48,0,0,1,0-2.4c0-.48-.71-.48-.75,0Z" style="fill: #437DFF; transform-origin: 129.397px 267.601px;" id="elosqec17g1i" class="animable"></path></g><defs>     <filter id="active" height="200%">         <feMorphology in="SourceAlpha" result="DILATED" operator="dilate" radius="2"></feMorphology>                <feFlood flood-color="#32DFEC" flood-opacity="1" result="PINK"></feFlood>        <feComposite in="PINK" in2="DILATED" operator="in" result="OUTLINE"></feComposite>        <feMerge>            <feMergeNode in="OUTLINE"></feMergeNode>            <feMergeNode in="SourceGraphic"></feMergeNode>        </feMerge>    </filter>    <filter id="hover" height="200%">        <feMorphology in="SourceAlpha" result="DILATED" operator="dilate" radius="2"></feMorphology>                <feFlood flood-color="#ff0000" flood-opacity="0.5" result="PINK"></feFlood>        <feComposite in="PINK" in2="DILATED" operator="in" result="OUTLINE"></feComposite>        <feMerge>            <feMergeNode in="OUTLINE"></feMergeNode>            <feMergeNode in="SourceGraphic"></feMergeNode>        </feMerge>            <feColorMatrix type="matrix" values="0   0   0   0   0                0   1   0   0   0                0   0   0   0   0                0   0   0   1   0 "></feColorMatrix>    </filter></defs></svg>